# xmcd CD database file
#
# Track frame offsets:
#	150
#	2284
#	24316
#	47823
#	71273
#	93981
#	119241
#	143677
#	167190
#	190754
#	209159
#	228103
#	246048
#
# Disc length: 3637 seconds
#
# Revision: 0
# Processed by: cddbd v1.5.1PL0 Copyright (c) Steve Scherf et al.
# Submitted via: CDex 1.51
#
DISCID=a90e330d
DTITLE=Sangit Om - Time To Say Good Night
DYEAR=1999
DGENRE=New Age
TTITLE0=Guten Abend, Gute Nacht
TTITLE1=De Luain, De Mairs
TTITLE2=Aija, Ancit Aija
TTITLE3=I Feel Sleepy, Don't Disturb Me
TTITLE4=Hush, Little Baby
TTITLE5=Heidschi Bumbeidschi
TTITLE6=Bienlein Ist Lange Schon Daheim
TTITLE7=Pan Ta Koritsia
TTITLE8=Nun Schlaf Mein Liebes Kindlein
TTITLE9=Baujuschki Baju
TTITLE10=Guter Mond, Du Gehst So Stille
TTITLE11=Schlot Schoin Main Jankele
TTITLE12=Weibt Du, Wieviel Sternlein Stehen
EXTD=YEAR: 1999
EXTT0=
EXTT1=
EXTT2=
EXTT3=
EXTT4=
EXTT5=
EXTT6=
EXTT7=
EXTT8=
EXTT9=
EXTT10=
EXTT11=
EXTT12=
PLAYORDER=
